<svg width="27" height="27" viewBox="0 0 27 27" fill="none" xmlns="http://www.w3.org/2000/svg">
<g opacity="0.961">
<path fill-rule="evenodd" clip-rule="evenodd" d="M13.1308 0C13.377 0 13.623 0 13.8691 0C14.3428 0.148605 14.6505 0.465012 14.792 0.949219C14.8738 1.79109 14.8914 2.63484 14.8447 3.48047C14.7545 4.28261 14.3062 4.72206 13.5 4.79883C12.6937 4.72206 12.2455 4.28261 12.1553 3.48047C12.1086 2.63484 12.1261 1.79109 12.208 0.949219C12.3495 0.465012 12.6571 0.148605 13.1308 0Z" fill="white"/>
<path fill-rule="evenodd" clip-rule="evenodd" d="M4.69336 3.5332C5.10571 3.51184 5.47484 3.6261 5.80079 3.87598C6.39125 4.4488 6.96252 5.03767 7.51465 5.64258C7.93357 6.58394 7.67871 7.26073 6.75 7.67285C6.3613 7.74193 5.99216 7.6892 5.64258 7.51465C4.9834 6.92576 4.35938 6.30176 3.77051 5.64258C3.31784 4.60004 3.62546 3.89692 4.69336 3.5332Z" fill="white"/>
<path fill-rule="evenodd" clip-rule="evenodd" d="M21.9375 3.5332C23.0745 3.60647 23.558 4.20413 23.3877 5.32617C23.3132 5.49287 23.2253 5.65107 23.124 5.80078C22.5512 6.39125 21.9623 6.96252 21.3574 7.51465C20.5037 7.91548 19.8446 7.71335 19.3799 6.9082C19.2098 6.36609 19.2977 5.87392 19.6435 5.43164C20.1621 4.91309 20.6807 4.39453 21.1992 3.87598C21.4308 3.71603 21.6769 3.60177 21.9375 3.5332Z" fill="white"/>
<path fill-rule="evenodd" clip-rule="evenodd" d="M13.2363 6.69727C16.2514 6.75343 18.4223 8.12452 19.749 10.8105C20.7739 13.5703 20.3168 16.0488 18.3779 18.2461C16.1709 20.2941 13.6484 20.7951 10.8105 19.749C8.20826 18.4889 6.83717 16.4059 6.69726 13.5C6.83717 10.5941 8.20826 8.51106 10.8105 7.25098C11.5963 6.93404 12.4049 6.74947 13.2363 6.69727Z" fill="white"/>
<path fill-rule="evenodd" clip-rule="evenodd" d="M0 13.8691C0 13.623 0 13.377 0 13.1309C0.148605 12.6571 0.465011 12.3495 0.949218 12.208C1.79109 12.1262 2.63483 12.1086 3.48047 12.1553C4.28261 12.2455 4.72206 12.6937 4.79883 13.5C4.73571 14.1464 4.40173 14.5771 3.79687 14.792C2.84765 14.8272 1.89844 14.8272 0.949218 14.792C0.465011 14.6505 0.148605 14.3429 0 13.8691Z" fill="white"/>
<path fill-rule="evenodd" clip-rule="evenodd" d="M27 13.1309C27 13.377 27 13.623 27 13.8691C26.8514 14.3429 26.535 14.6505 26.0508 14.792C25.1016 14.8272 24.1523 14.8272 23.2031 14.792C22.3675 14.4479 22.0775 13.8414 22.333 12.9727C22.5685 12.4743 22.964 12.2018 23.5195 12.1553C24.3652 12.1086 25.2089 12.1262 26.0508 12.208C26.535 12.3495 26.8514 12.6571 27 13.1309Z" fill="white"/>
<path fill-rule="evenodd" clip-rule="evenodd" d="M6.01171 19.3008C6.8282 19.1768 7.38191 19.4932 7.67285 20.25C7.78243 20.7449 7.67696 21.1843 7.35644 21.5684C6.8012 22.1412 6.22988 22.6949 5.64257 23.2295C4.75536 23.6545 4.07861 23.4347 3.6123 22.5703C3.46537 22.0682 3.55326 21.6112 3.87597 21.1992C4.39452 20.6807 4.91308 20.1621 5.43164 19.6436C5.61267 19.5006 5.80605 19.3864 6.01171 19.3008Z" fill="white"/>
<path fill-rule="evenodd" clip-rule="evenodd" d="M20.25 19.3008C20.639 19.258 21.0082 19.3195 21.3574 19.4853C21.9623 20.0375 22.5512 20.6087 23.124 21.1992C23.6328 21.9443 23.5537 22.6211 22.8867 23.2295C22.376 23.5456 21.8663 23.5456 21.3574 23.2295C20.6982 22.6406 20.0742 22.0166 19.4854 21.3574C19.0714 20.4098 19.3263 19.7242 20.25 19.3008Z" fill="white"/>
<path fill-rule="evenodd" clip-rule="evenodd" d="M13.8691 27C13.623 27 13.377 27 13.1308 27C12.6571 26.8514 12.3495 26.535 12.208 26.0508C12.1261 25.2089 12.1086 24.3652 12.1553 23.5195C12.2455 22.7174 12.6937 22.278 13.5 22.2012C14.3062 22.278 14.7545 22.7174 14.8447 23.5195C14.8914 24.3652 14.8738 25.2089 14.792 26.0508C14.6505 26.535 14.3428 26.8514 13.8691 27Z" fill="white"/>
</g>
</svg>
